<svg width="351" height="144" viewBox="0 0 351 144" fill="none" xmlns="http://www.w3.org/2000/svg">
<rect width="351" height="144" rx="12" fill="white"/>
<path d="M15.4033 56.6543H17.0635C18.6655 56.6543 19.6201 57.4014 19.6201 58.6548C19.6201 59.875 18.6074 60.7134 17.1133 60.7134C15.5776 60.7134 14.5151 59.958 14.4072 58.7793H12.6143C12.7222 60.8877 14.5151 62.2905 17.1216 62.2905C19.6284 62.2905 21.5293 60.7632 21.5293 58.7461C21.5293 57.1191 20.5332 55.9819 18.9312 55.7827V55.7163C20.2593 55.4009 21.1641 54.2886 21.1641 52.9521C21.1641 51.0596 19.5122 49.7314 17.1548 49.7314C14.6646 49.7314 13.0459 51.0596 12.9214 53.2012H14.6812C14.7891 52.0142 15.6938 51.2837 17.0967 51.2837C18.4746 51.2837 19.3296 51.9976 19.3296 53.1431C19.3296 54.2969 18.3833 55.1021 17.0137 55.1021H15.4033V56.6543ZM26.1694 60.73C25.2065 60.73 24.5757 60.2319 24.5757 59.4683C24.5757 58.7212 25.1816 58.248 26.2524 58.1733L28.4023 58.0405V58.7295C28.4023 59.8667 27.4229 60.73 26.1694 60.73ZM25.6714 62.1494C26.8169 62.1494 27.9209 61.5352 28.4272 60.564H28.4688V62H30.187V55.9819C30.187 54.2305 28.834 53.1099 26.7173 53.1099C24.5591 53.1099 23.2144 54.272 23.1147 55.8491H24.8081C24.9658 55.0688 25.6133 54.5708 26.6509 54.5708C27.7466 54.5708 28.4023 55.1519 28.4023 56.123V56.7954L26.0117 56.9365C23.9365 57.0527 22.7661 57.9907 22.7661 59.5181C22.7661 61.0869 23.9614 62.1494 25.6714 62.1494ZM35.6157 57.3682L39.4839 53.2676H37.3423L33.9224 57.0029H33.856V53.2676H32.0713V62H33.856V57.9741H33.9224L37.3838 62H39.6333L35.6157 57.3682ZM43.6011 60.73C42.6382 60.73 42.0073 60.2319 42.0073 59.4683C42.0073 58.7212 42.6133 58.248 43.6841 58.1733L45.834 58.0405V58.7295C45.834 59.8667 44.8545 60.73 43.6011 60.73ZM43.103 62.1494C44.2485 62.1494 45.3525 61.5352 45.8589 60.564H45.9004V62H47.6187V55.9819C47.6187 54.2305 46.2656 53.1099 44.1489 53.1099C41.9907 53.1099 40.646 54.272 40.5464 55.8491H42.2397C42.3975 55.0688 43.0449 54.5708 44.0825 54.5708C45.1782 54.5708 45.834 55.1519 45.834 56.123V56.7954L43.4434 56.9365C41.3682 57.0527 40.1978 57.9907 40.1978 59.5181C40.1978 61.0869 41.3931 62.1494 43.103 62.1494ZM52.6406 62.166C54.8071 62.166 56.21 61.0703 56.21 59.4102C56.21 58.4141 55.6206 57.6919 54.5083 57.4346V57.3682C55.355 57.1523 55.9028 56.397 55.9028 55.5088C55.9028 54.0562 54.7573 53.1099 52.6406 53.1099C50.6899 53.1099 49.3867 54.0811 49.2041 55.6333H50.9224C51.0386 54.9526 51.686 54.5376 52.6489 54.5376C53.6699 54.5376 54.1514 55.0107 54.1514 55.6831C54.1514 56.4468 53.6284 56.8286 52.624 56.8286H51.3706V58.1484H52.6489C53.8359 58.1484 54.4253 58.5469 54.4253 59.4185C54.4253 60.1904 53.7861 60.7217 52.6406 60.7217C51.6362 60.7217 50.9722 60.3066 50.7896 59.5513H49.0215C49.1792 61.1616 50.5986 62.166 52.6406 62.166ZM65.0005 62.166C67.499 62.166 69.1426 60.4478 69.1426 57.6338C69.1426 54.8281 67.4907 53.1099 65.0005 53.1099C62.5103 53.1099 60.8584 54.8281 60.8584 57.6338C60.8584 60.4478 62.502 62.166 65.0005 62.166ZM65.0005 60.6885C63.5977 60.6885 62.6846 59.5762 62.6846 57.6338C62.6846 55.6997 63.5977 54.5874 65.0005 54.5874C66.4033 54.5874 67.3164 55.6997 67.3164 57.6338C67.3164 59.5762 66.4116 60.6885 65.0005 60.6885ZM74.9033 60.6719C73.1934 60.6221 72.1143 59.4932 72.1143 57.6338C72.1143 55.7827 73.2017 54.6372 74.9033 54.5957V60.6719ZM79.4189 57.6338C79.4189 59.4932 78.3232 60.6304 76.6299 60.6719V54.5957C78.3315 54.6455 79.4189 55.7744 79.4189 57.6338ZM74.895 62.1162V64.8887H76.6382V62.1162C79.394 62.0664 81.2285 60.3398 81.2285 57.6338C81.2285 54.9194 79.4023 53.2095 76.6382 53.1597V50.437H74.895V53.1597C72.1226 53.2012 70.2964 54.9277 70.2964 57.6338C70.2964 60.3564 72.1143 62.0581 74.895 62.1162ZM86.5327 62.166C89.0312 62.166 90.6748 60.4478 90.6748 57.6338C90.6748 54.8281 89.0229 53.1099 86.5327 53.1099C84.0425 53.1099 82.3906 54.8281 82.3906 57.6338C82.3906 60.4478 84.0342 62.166 86.5327 62.166ZM86.5327 60.6885C85.1299 60.6885 84.2168 59.5762 84.2168 57.6338C84.2168 55.6997 85.1299 54.5874 86.5327 54.5874C87.9355 54.5874 88.8486 55.6997 88.8486 57.6338C88.8486 59.5762 87.9438 60.6885 86.5327 60.6885ZM96.7759 53.1265C95.5142 53.1265 94.5098 53.7656 93.9951 54.77H93.9619V53.2676H92.2271V64.8887H94.02V60.564H94.0615C94.5596 61.5352 95.5557 62.1494 96.8091 62.1494C99.0005 62.1494 100.453 60.3979 100.453 57.6338C100.453 54.8696 98.9922 53.1265 96.7759 53.1265ZM96.3027 60.6304C94.9248 60.6304 94.0117 59.4517 94.0117 57.6338C94.0117 55.8325 94.9331 54.6372 96.3027 54.6372C97.7222 54.6372 98.6104 55.8076 98.6104 57.6338C98.6104 59.4683 97.7222 60.6304 96.3027 60.6304ZM103.724 62V55.9404H103.782L106.396 61.6597H107.708L110.323 55.9404H110.381V62H112.124V53.2676H109.924L107.11 59.6675H107.044L104.247 53.2676H101.997V62H103.724ZM116.689 58.0239L116.93 54.687H119.62V62H121.404V53.2676H115.353L115.054 57.9492C114.955 59.4683 114.656 60.481 113.809 60.481C113.585 60.481 113.419 60.4395 113.336 60.4146V61.9917C113.444 62.0332 113.651 62.083 113.942 62.083C115.901 62.083 116.523 60.4976 116.689 58.0239ZM126.991 54.5542C128.244 54.5542 129.091 55.4922 129.132 56.8286H124.766C124.857 55.5088 125.737 54.5542 126.991 54.5542ZM129.124 59.4351C128.883 60.1987 128.128 60.7134 127.107 60.7134C125.671 60.7134 124.758 59.709 124.758 58.1899V58.082H130.925V57.4678C130.925 54.8198 129.415 53.1099 126.991 53.1099C124.525 53.1099 122.948 54.936 122.948 57.6753C122.948 60.4312 124.5 62.166 127.065 62.166C129.066 62.166 130.577 61.0288 130.826 59.4351H129.124ZM138.197 62H139.981V53.2676H138.197V56.7871H134.246V53.2676H132.461V62H134.246V58.1982H138.197V62Z" fill="#51267D"/>
<circle cx="34" cy="106" r="22" fill="#51267D"/>
<path d="M30.543 103.218H37.398" stroke="#EBEDF0" stroke-width="1.5" stroke-linecap="round" stroke-linejoin="round"/>
<path fill-rule="evenodd" clip-rule="evenodd" d="M33.9702 96.5C27.5832 96.5 26.5042 97.432 26.5042 104.929C26.5042 113.322 26.3472 115.5 27.9432 115.5C29.5382 115.5 32.1432 111.816 33.9702 111.816C35.7972 111.816 38.4022 115.5 39.9972 115.5C41.5932 115.5 41.4362 113.322 41.4362 104.929C41.4362 97.432 40.3572 96.5 33.9702 96.5Z" stroke="#EBEDF0" stroke-width="1.5" stroke-linecap="round" stroke-linejoin="round"/>
<circle cx="175" cy="106" r="22" fill="#EBEDF0"/>
<path d="M178.749 103.471V100.439C178.754 98.3514 177.066 96.6544 174.977 96.6494C172.888 96.6454 171.192 98.3344 171.188 100.422V103.471" stroke="#51267D" stroke-width="1.5" stroke-linecap="round" stroke-linejoin="round"/>
<path fill-rule="evenodd" clip-rule="evenodd" d="M165.949 108.207C165.949 102.913 168.204 101.148 174.968 101.148C181.732 101.148 183.987 102.913 183.987 108.207C183.987 113.5 181.732 115.265 174.968 115.265C168.204 115.265 165.949 113.5 165.949 108.207Z" stroke="#51267D" stroke-width="1.5" stroke-linecap="round" stroke-linejoin="round"/>
<circle cx="317" cy="106" r="22" fill="#EBEDF0"/>
<path d="M313.439 106L315.813 108.373L320.559 103.627" stroke="#51267D" stroke-width="1.5" stroke-linecap="round" stroke-linejoin="round"/>
<path fill-rule="evenodd" clip-rule="evenodd" d="M307.75 106C307.75 112.937 310.063 115.25 317 115.25C323.937 115.25 326.25 112.937 326.25 106C326.25 99.063 323.937 96.75 317 96.75C310.063 96.75 307.75 99.063 307.75 106Z" stroke="#51267D" stroke-width="1.5" stroke-linecap="round" stroke-linejoin="round"/>
<rect x="62" y="104" width="85" height="4" rx="2" fill="#51267D"/>
<rect x="203" y="104" width="86" height="4" rx="2" fill="#EBEDF0"/>
<path d="M19.4121 35.2832C22.6543 35.2832 24.9199 33.5254 25.457 30.6348H22.957C22.498 32.1875 21.1992 33.0957 19.4219 33.0957C16.9805 33.0957 15.4375 31.1133 15.4375 27.9492C15.4375 24.8047 16.9902 22.8125 19.4121 22.8125C21.1504 22.8125 22.5371 23.8574 22.957 25.4785H25.4473C25.0273 22.5879 22.5957 20.625 19.4121 20.625C15.4082 20.625 12.8594 23.457 12.8594 27.9492C12.8594 32.4707 15.3887 35.2832 19.4121 35.2832ZM35.7491 24.6484H26.9698V26.5234H30.1534V35H32.5655V26.5234H35.7491V24.6484ZM41.1487 33.3301C40.094 33.3301 39.3909 32.793 39.3909 31.9434C39.3909 31.123 40.0647 30.5957 41.2366 30.5176L43.6291 30.3711V31.1621C43.6291 32.4121 42.5256 33.3301 41.1487 33.3301ZM40.4163 35.166C41.7444 35.166 43.0432 34.4727 43.6389 33.3496H43.6877V35H46.0315V27.8711C46.0315 25.791 44.3616 24.4336 41.7932 24.4336C39.1565 24.4336 37.5061 25.8203 37.3987 27.7539H39.6545C39.8108 26.8945 40.5432 26.3379 41.6955 26.3379C42.8967 26.3379 43.6291 26.9629 43.6291 28.0469V28.7891L40.8948 28.9453C38.3752 29.1016 36.9592 30.2051 36.9592 32.041C36.9592 33.9062 38.4143 35.166 40.4163 35.166ZM56.5091 24.6484H47.7298V26.5234H50.9134V35H53.3255V26.5234H56.5091V24.6484ZM59.5552 38.8477C61.9184 38.8477 63.061 37.9785 63.9497 35.4102L67.6899 24.6484H65.1313L62.6899 32.9297H62.6509L60.2095 24.6484H57.5532L61.2348 35.0098C61.2446 35.0391 61.0981 35.5566 61.0981 35.5859C60.8247 36.543 60.3071 36.9238 59.3013 36.9238C59.1548 36.9238 58.7251 36.9141 58.5981 36.8848V38.8086C58.7251 38.8379 59.4184 38.8477 59.5552 38.8477ZM78.1773 28.0566C77.8941 26.0352 76.2438 24.4336 73.6363 24.4336C70.6285 24.4336 68.7047 26.543 68.7047 29.8242C68.7047 33.1543 70.6285 35.2051 73.6559 35.2051C76.1852 35.2051 77.9039 33.7695 78.1969 31.6016H75.8922C75.6188 32.6367 74.8473 33.2422 73.6754 33.2422C72.1422 33.2422 71.1559 31.9629 71.1559 29.8242C71.1559 27.7246 72.1324 26.4062 73.6656 26.4062C74.8766 26.4062 75.6188 27.1289 75.8727 28.0566H78.1773ZM88.5272 35.2051C91.1932 35.2051 92.8924 33.916 92.8924 31.9141C92.8924 30.752 92.2088 29.9023 90.91 29.5898V29.5117C91.9061 29.248 92.5311 28.3789 92.5311 27.334C92.5311 25.5566 91.1053 24.4336 88.4979 24.4336C86.076 24.4336 84.494 25.6348 84.2889 27.5879H86.5936C86.7303 26.7871 87.4334 26.3184 88.4979 26.3184C89.6209 26.3184 90.1581 26.8359 90.1581 27.5781C90.1581 28.418 89.5819 28.8281 88.4784 28.8281H87.0526V30.5078H88.5272C89.826 30.5078 90.4803 30.9375 90.4803 31.875C90.4803 32.7148 89.7772 33.291 88.5272 33.291C87.3944 33.291 86.6522 32.8125 86.4373 31.9238H84.0741C84.2694 33.9648 85.9784 35.2051 88.5272 35.2051ZM98.8584 33.3301C97.8037 33.3301 97.1005 32.793 97.1005 31.9434C97.1005 31.123 97.7744 30.5957 98.9463 30.5176L101.339 30.3711V31.1621C101.339 32.4121 100.235 33.3301 98.8584 33.3301ZM98.1259 35.166C99.4541 35.166 100.753 34.4727 101.349 33.3496H101.397V35H103.741V27.8711C103.741 25.791 102.071 24.4336 99.5029 24.4336C96.8662 24.4336 95.2158 25.8203 95.1084 27.7539H97.3642C97.5205 26.8945 98.2529 26.3379 99.4052 26.3379C100.606 26.3379 101.339 26.9629 101.339 28.0469V28.7891L98.6045 28.9453C96.0849 29.1016 94.6689 30.2051 94.6689 32.041C94.6689 33.9062 96.124 35.166 98.1259 35.166ZM110.986 29.4824L115.371 24.6484H112.539L108.75 28.9648H108.672V24.6484H106.25V35H108.672V30.3711H108.75L112.598 35H115.576L110.986 29.4824ZM120.79 33.3301C119.736 33.3301 119.032 32.793 119.032 31.9434C119.032 31.123 119.706 30.5957 120.878 30.5176L123.271 30.3711V31.1621C123.271 32.4121 122.167 33.3301 120.79 33.3301ZM120.058 35.166C121.386 35.166 122.685 34.4727 123.28 33.3496H123.329V35H125.673V27.8711C125.673 25.791 124.003 24.4336 121.435 24.4336C118.798 24.4336 117.148 25.8203 117.04 27.7539H119.296C119.452 26.8945 120.185 26.3379 121.337 26.3379C122.538 26.3379 123.271 26.9629 123.271 28.0469V28.7891L120.536 28.9453C118.017 29.1016 116.601 30.2051 116.601 32.041C116.601 33.9062 118.056 35.166 120.058 35.166ZM132.118 35.2051C134.784 35.2051 136.483 33.916 136.483 31.9141C136.483 30.752 135.799 29.9023 134.5 29.5898V29.5117C135.496 29.248 136.121 28.3789 136.121 27.334C136.121 25.5566 134.696 24.4336 132.088 24.4336C129.666 24.4336 128.084 25.6348 127.879 27.5879H130.184C130.321 26.7871 131.024 26.3184 132.088 26.3184C133.211 26.3184 133.748 26.8359 133.748 27.5781C133.748 28.418 133.172 28.8281 132.069 28.8281H130.643V30.5078H132.118C133.416 30.5078 134.071 30.9375 134.071 31.875C134.071 32.7148 133.368 33.291 132.118 33.291C130.985 33.291 130.243 32.8125 130.028 31.9238H127.664C127.86 33.9648 129.569 35.2051 132.118 35.2051ZM142.449 33.3301C141.394 33.3301 140.691 32.793 140.691 31.9434C140.691 31.123 141.365 30.5957 142.537 30.5176L144.929 30.3711V31.1621C144.929 32.4121 143.826 33.3301 142.449 33.3301ZM141.716 35.166C143.044 35.166 144.343 34.4727 144.939 33.3496H144.988V35H147.331V27.8711C147.331 25.791 145.662 24.4336 143.093 24.4336C140.456 24.4336 138.806 25.8203 138.699 27.7539H140.955C141.111 26.8945 141.843 26.3379 142.996 26.3379C144.197 26.3379 144.929 26.9629 144.929 28.0469V28.7891L142.195 28.9453C139.675 29.1016 138.259 30.2051 138.259 32.041C138.259 33.9062 139.714 35.166 141.716 35.166ZM156.881 35V25.2539H157.047L163.668 35H165.845V20.9082H163.424V30.6445H163.258L156.636 20.9082H154.449V35H156.881ZM170.894 27.7051C172.984 27.7051 174.537 26.3477 174.537 24.1992C174.537 22.0605 172.984 20.7129 170.894 20.7129C168.834 20.7129 167.31 22.0605 167.31 24.1992C167.31 26.3477 168.843 27.7051 170.894 27.7051ZM170.894 26.0938C169.898 26.0938 169.263 25.3516 169.263 24.1992C169.263 23.0273 169.898 22.3145 170.894 22.3145C171.949 22.3145 172.584 23.0273 172.584 24.1992C172.584 25.3516 171.92 26.0938 170.894 26.0938ZM174.215 30.7031V28.7012H167.652V30.7031H174.215ZM180.093 35H182.563V20.9082H180.073L176.391 23.4961V25.8691L180.034 23.3105H180.093V35ZM189.486 28.7207H191.225C192.973 28.7207 194.047 29.5898 194.047 31.0156C194.047 32.3145 192.904 33.2227 191.283 33.2227C189.603 33.2227 188.549 32.3633 188.432 31.0742H186.029C186.156 33.584 188.168 35.2832 191.264 35.2832C194.34 35.2832 196.605 33.6035 196.605 31.1133C196.605 29.1504 195.238 27.8613 193.129 27.7051V27.6465C194.867 27.3438 196.039 26.084 196.039 24.3359C196.039 22.1387 194.066 20.625 191.293 20.625C188.383 20.625 186.439 22.2656 186.303 24.7949H188.646C188.744 23.4766 189.721 22.627 191.176 22.627C192.758 22.627 193.617 23.4473 193.617 24.6777C193.617 25.9375 192.631 26.8262 191.185 26.8262H189.486V28.7207ZM205.667 35H208.069V32.334H209.964V30.2734H208.069V20.9082H204.485C201.429 25.3516 199.856 27.8613 198.636 30.166V32.334H205.667V35ZM200.921 30.2637C202.044 28.1543 203.392 26.0742 205.667 22.7734H205.706V30.332H200.921V30.2637ZM211.858 25.0879V25.1172H214.221V25.0781C214.221 23.6816 215.315 22.6465 216.779 22.6465C218.176 22.6465 219.221 23.5742 219.221 24.7363C219.221 25.791 218.781 26.5137 217.18 28.1445L211.994 33.3008V35H221.897V32.9395H215.354V32.8906L218.84 29.4434C220.686 27.5781 221.682 26.3086 221.682 24.6289C221.682 22.3438 219.67 20.625 216.858 20.625C213.938 20.625 211.858 22.4902 211.858 25.0879Z" fill="black"/>
</svg>
