<svg width="20" height="20" viewBox="0 0 20 20" fill="none" xmlns="http://www.w3.org/2000/svg">
<path fill-rule="evenodd" clip-rule="evenodd" d="M4.74435 5.35854C12.9513 4.24417 14.9738 4.38093 16.2492 5.83325C17.5246 7.28557 17.226 12.0733 15.7352 13.4058C14.2452 14.7383 7.77435 14.865 5.72435 13.4058C3.55852 11.8633 4.81518 7.11833 4.74435 4.24417C4.78685 2.63583 3.04102 2.375 3.04102 2.375" fill="#51267D"/>
<path d="M4.74435 5.35854C12.9513 4.24417 14.9738 4.38093 16.2492 5.83325C17.5246 7.28557 17.226 12.0733 15.7352 13.4058C14.2452 14.7383 7.77435 14.865 5.72435 13.4058C3.55852 11.8633 4.81518 7.11833 4.74435 4.24417C4.78685 2.63583 3.04102 2.375 3.04102 2.375" stroke="#51267D" stroke-width="2" stroke-linecap="round" stroke-linejoin="round"/>
<path d="M11.7969 8.93327H14.1077" stroke="white" stroke-width="2" stroke-linecap="round" stroke-linejoin="round"/>
<path fill-rule="evenodd" clip-rule="evenodd" d="M6.05182 16.7725C6.30182 16.7725 6.50516 16.9758 6.50516 17.2258C6.50516 17.4766 6.30182 17.68 6.05182 17.68C5.80099 17.68 5.59766 17.4766 5.59766 17.2258C5.59766 16.9758 5.80099 16.7725 6.05182 16.7725Z" fill="#51267D" stroke="#51267D" stroke-width="2" stroke-linecap="round" stroke-linejoin="round"/>
<path fill-rule="evenodd" clip-rule="evenodd" d="M14.6623 16.7725C14.9131 16.7725 15.1165 16.9758 15.1165 17.2258C15.1165 17.4766 14.9131 17.68 14.6623 17.68C14.4123 17.68 14.209 17.4766 14.209 17.2258C14.209 16.9758 14.4123 16.7725 14.6623 16.7725Z" fill="#51267D" stroke="#51267D" stroke-width="2" stroke-linecap="round" stroke-linejoin="round"/>
</svg>
