<svg width="24" height="24" viewBox="0 0 24 24" fill="none" xmlns="http://www.w3.org/2000/svg">
<path d="M12 2.75C5.063 2.75 2.75 5.063 2.75 12C2.75 18.937 5.063 21.25 12 21.25C18.937 21.25 21.25 18.937 21.25 12" stroke="#51267D" stroke-width="2" stroke-linecap="round" stroke-linejoin="round"/>
<path fill-rule="evenodd" clip-rule="evenodd" d="M19.528 4.30461V4.30461C18.535 3.42561 17.018 3.51761 16.139 4.51061C16.139 4.51061 11.77 9.44561 10.255 11.1586C8.73804 12.8706 9.85004 15.2356 9.85004 15.2356C9.85004 15.2356 12.354 16.0286 13.848 14.3406C15.343 12.6526 19.734 7.69361 19.734 7.69361C20.613 6.70061 20.52 5.18361 19.528 4.30461Z" stroke="#51267D" stroke-width="2" stroke-linecap="round" stroke-linejoin="round"/>
<path d="M15.0098 5.80078L18.6048 8.98378" stroke="#51267D" stroke-width="2" stroke-linecap="round" stroke-linejoin="round"/>
</svg>
