<svg width="40" height="40" viewBox="0 0 40 40" fill="none" xmlns="http://www.w3.org/2000/svg">
<rect width="40" height="40" rx="8" fill="#51267D" fill-opacity="0.05"/>
<path fill-rule="evenodd" clip-rule="evenodd" d="M20 17.5C21.3809 17.5 22.5 18.6191 22.5 20C22.5 21.3809 21.3809 22.5 20 22.5C18.6191 22.5 17.5 21.3809 17.5 20C17.5 18.6191 18.6191 17.5 20 17.5Z" stroke="#51267D" stroke-width="2" stroke-linecap="round" stroke-linejoin="round"/>
<path fill-rule="evenodd" clip-rule="evenodd" d="M28.168 15.2502V15.2502C27.4845 14.058 25.9712 13.65 24.7885 14.3385C23.7598 14.9361 22.4741 14.1884 22.4741 12.9922C22.4741 11.6162 21.3659 10.5 19.9998 10.5V10.5C18.6337 10.5 17.5255 11.6162 17.5255 12.9922C17.5255 14.1884 16.2398 14.9361 15.212 14.3385C14.0283 13.65 12.5151 14.058 11.8315 15.2502C11.149 16.4425 11.554 17.9666 12.7377 18.6541C13.7655 19.2527 13.7655 20.7473 12.7377 21.3459C11.554 22.0343 11.149 23.5585 11.8315 24.7498C12.5151 25.942 14.0283 26.35 15.211 25.6625H15.212C16.2398 25.0639 17.5255 25.8116 17.5255 27.0078V27.0078C17.5255 28.3838 18.6337 29.5 19.9998 29.5V29.5C21.3659 29.5 22.4741 28.3838 22.4741 27.0078V27.0078C22.4741 25.8116 23.7598 25.0639 24.7885 25.6625C25.9712 26.35 27.4845 25.942 28.168 24.7498C28.8515 23.5585 28.4455 22.0343 27.2628 21.3459H27.2618C26.2341 20.7473 26.2341 19.2527 27.2628 18.6541C28.4455 17.9666 28.8515 16.4425 28.168 15.2502Z" stroke="#51267D" stroke-width="2" stroke-linecap="round" stroke-linejoin="round"/>
</svg>
